Coordinates
version=1
nRows=21
nColumns=33
inDegrees=yes

Units are S.I. units (second, meters, Newtons, ...)
Angles are in degrees.

endheader
time	ground_thorax_rot_x	ground_thorax_rot_y	ground_thorax_rot_z	ground_thorax_tx	ground_thorax_ty	ground_thorax_tz	clav_prot_r	clav_elev_r	scapula_abduction_r	scapula_elevation_r	scapula_upward_rot_r	scapula_winging_r	shoulder_elv_r	plane_of_elev_r	axial_rot_r	elbow_flexion_r	pro_sup_r	wrist_flex_r	wrist_dev_r	clav_prot_l	clav_elev_l	scapula_abduction_l	scapula_elevation_l	scapula_upward_rot_l	scapula_winging_l	shoulder_elv_l	plane_of_elev_l	axial_rot_l	elbow_flexion_l	pro_sup_l	wrist_flex_l	wrist_dev_l
      5.38000000	      1.34400404	      4.98725072	     13.32548606	     -0.12499635	      1.03386772	      0.03300125	      1.10861200	     12.21925858	     11.73874060	      7.88583656	     23.27789539	     -8.78070081	     13.40980243	    -72.08257339	     57.73446287	     56.15328048	    -25.02355853	     70.00000021	    -24.99999983	     13.34219062	     -4.99023339	    -20.98771666	    -21.35369773	    -45.00000000	      1.25949654	     61.93633963	    -35.99024327	     -1.87293832	     69.58744506	     21.68343538	     -3.62645747	    -24.99999983
      5.39000000	      1.25286372	      4.98263578	     13.29898956	     -0.12464567	      1.03375267	      0.03329014	      1.08491533	     12.29821480	     11.82768151	      7.88817800	     23.46958287	     -8.83510752	     13.48672454	    -71.89988357	     57.74890767	     56.56631122	    -24.95736137	     70.00000021	    -24.99999983	     13.39858083	     -4.95667182	    -21.05046750	    -21.33069978	    -44.88631819	      1.30648086	     62.16670855	    -35.80097679	     -1.70053175	     69.99144401	     21.58470123	     -3.60283956	    -24.99999983
      5.40000000	      1.33030850	      5.06314812	     13.28765360	     -0.12411139	      1.03355803	      0.03362334	      0.97428367	     12.44291393	     11.71921495	      7.95061546	     23.66139886	     -8.84025556	     14.04242888	    -71.98458001	     57.56907090	     57.31299018	    -24.64516924	     70.00000021	    -24.99999983	     13.44604242	     -5.09495712	    -21.16840938	    -21.24830966	    -45.00000000	      1.35584765	     62.46042053	    -35.43996802	     -1.41962525	     70.43896457	     21.22294609	     -3.23235516	    -24.99999983
      5.41000000	      1.33449014	      5.14628386	     13.22063825	     -0.12393027	      1.03356880	      0.03395122	      0.97747152	     12.45495258	     11.81583928	      7.92237010	     23.77083886	     -8.88444599	     14.53469787	    -71.88270098	     57.52295642	     57.95652389	    -24.14354039	     70.00000021	    -24.99999983	     13.57518292	     -5.25139653	    -21.39126812	    -21.09275887	    -45.00000000	      1.47522551	     62.82590991	    -35.06880468	     -1.26465842	     70.78256099	     20.80389694	     -2.70129826	    -24.99999983
      5.42000000	      1.30431677	      5.27440188	     13.25437892	     -0.12378524	      1.03385174	      0.03427003	      0.91647914	     12.13725186	     11.62911976	      7.72900882	     23.53754258	     -8.79487997	     16.24605636	    -71.93305489	     57.80759454	     58.76807545	    -21.86621942	     70.00000021	    -24.99999983	     13.85092525	     -5.54500731	    -21.86690356	    -20.80025964	    -45.00000000	      1.73061225	     63.12054727	    -34.81388844	     -1.00060004	     71.06645866	     18.99428395	      0.26903565	    -24.99999983
      5.43000000	      1.21687628	      5.25659005	     13.25170830	     -0.12336034	      1.03379822	      0.03454441	      0.87686404	     12.20239938	     11.74727806	      7.69951761	     23.78973788	     -8.86826251	     16.33830975	    -71.66804856	     57.74713253	     59.28482541	    -21.83916144	     70.00000021	    -24.99999983	     13.91608108	     -5.53742716	    -21.91132388	    -20.70994844	    -44.78885265	      1.78797652	     63.36818294	    -34.53466170	     -0.85683611	     71.36909986	     18.91518919	      0.34260632	    -24.99999983
      5.44000000	      1.32786728	      5.54198115	     13.18337258	     -0.12303473	      1.03400671	      0.03487417	      0.77705296	     12.24627707	     11.71944016	      7.66761748	     23.99885128	     -8.89767999	     16.83270088	    -71.29982385	     57.34540773	     60.79769083	    -26.53998206	     70.00000021	    -24.99999983	     14.12274225	     -5.96409722	    -22.32609248	    -20.39219376	    -45.00000000	      1.98733179	     64.12279887	    -33.90687704	     -0.86365695	     71.57093557	     18.12157214	      2.33106197	    -24.99999983
      5.45000000	      1.19118222	      5.44984992	     13.17655654	     -0.12249400	      1.03404056	      0.03507415	      0.72605486	     12.29137819	     11.90579281	      7.59139220	     24.34219001	     -8.99739475	     16.88529454	    -70.90456825	     57.28938165	     61.40007875	    -26.55803094	     70.00000021	    -24.99999983	     14.18757532	     -5.94690367	    -22.35262617	    -20.28641523	    -44.73080057	      2.04438695	     64.34077919	    -33.63443373	     -0.60136145	     71.81285949	     18.01168734	      2.45163358	    -24.99999983
      5.46000000	      1.14120727	      5.43313343	     13.09796063	     -0.12208662	      1.03390940	      0.03527080	      0.70228133	     12.35208197	     12.14609680	      7.52662877	     24.68719529	     -9.12051987	     17.10703535	    -70.57505816	     57.08685854	     61.98070160	    -26.64456675	     70.00000021	    -24.99999983	     14.29454058	     -5.99709790	    -22.43338394	    -20.08693583	    -44.40311739	      2.14105037	     64.58176662	    -33.21036575	     -0.50052022	     71.93469156	     17.89515279	      2.67110086	    -24.99999983
      5.47000000	      1.30329149	      5.38390725	     13.07070197	     -0.12171766	      1.03398235	      0.03529892	      0.92258691	     12.27522977	     12.80406039	      7.38228049	     24.90257278	     -9.31774842	     17.69939856	    -70.77017760	     56.94372012	     63.09604731	    -28.41557308	     70.00000021	    -24.99999983	     14.46405190	     -6.37986834	    -22.69405406	    -19.69313544	    -44.33989717	      2.30135835	     64.70078519	    -32.64247347	      0.35837324	     71.98940418	     16.04688905	      7.69330409	    -24.99999983
      5.48000000	      1.32662361	      5.40880927	     12.97899469	     -0.12126306	      1.03407940	      0.03541436	      0.89891974	     12.33095948	     13.02287177	      7.32432139	     25.22257069	     -9.42390288	     17.95831328	    -70.35983714	     56.63757751	     63.60383202	    -28.47985227	     69.89432756	    -24.99999983	     14.58778419	     -6.49923590	    -22.78018185	    -19.39921284	    -43.94354598	      2.41737307	     64.97373091	    -32.04103471	      0.25144392	     71.81243114	     16.05202678	      8.02053175	    -24.99999983
      5.49000000	      1.35776724	      5.40054069	     12.96360555	     -0.12080439	      1.03380860	      0.03554037	      0.94850028	     12.52996069	     13.47061180	      7.33579362	     25.70146923	     -9.61532125	     18.21133983	    -70.33520599	     56.12504646	     64.89929835	    -29.10484850	     66.79365797	    -24.99999983	     14.74986372	     -6.68095522	    -22.93927373	    -19.05558426	    -43.57130419	      2.56397304	     65.19802105	    -31.52654564	      0.48444439	     71.80594059	     15.61467441	     10.52788777	    -24.49847063
      5.50000000	      1.36170117	      5.30200013	     13.00039232	     -0.12067925	      1.03398447	      0.03553240	      1.18555157	     12.48843071	     14.14685695	      7.22402707	     25.91567556	     -9.81955968	     18.88150715	    -70.32179446	     55.32605157	     65.90388873	    -27.61080635	     62.33306721	    -24.99999983	     14.96164055	     -6.95306825	    -23.21075343	    -18.66814622	    -43.29402244	      2.75349476	     65.36726165	    -30.94834755	      0.80187476	     71.76231711	     15.25825516	     13.18505246	    -22.58809089
      5.51000000	      1.30347440	      5.28410118	     12.89468534	     -0.12026085	      1.03415173	      0.03536745	      1.24254206	     12.37189592	     14.55191333	      7.03521185	     26.18593086	     -9.96081186	     19.13505274	    -69.74582628	     55.06218744	     66.04880303	    -27.57909810	     61.97604217	    -24.99999983	     15.13419345	     -7.17638911	    -23.37326166	    -18.26130898	    -42.86741691	      2.90878667	     65.67425989	    -30.33964981	      0.72967434	     71.39460021	     15.26885769	     13.28387878	    -22.40660103
      5.52000000	      1.37278955	      5.15639564	     12.70507109	     -0.11984455	      1.03396230	      0.03535882	      1.27563147	     12.51981002	     15.20330849	      6.93326844	     26.89420856	    -10.22528051	     19.34353256	    -69.63278313	     54.30828969	     67.33783946	    -27.93331571	     56.77328737	    -24.99999983	     15.30971110	     -7.36645964	    -23.53402344	    -17.87013604	    -42.40705788	      3.06277960	     65.64045644	    -29.50297209	      1.11041953	     71.11896802	     14.62760295	     14.99385775	    -20.35435766
      5.53000000	      1.24249705	      5.09965166	     12.99923487	     -0.11994809	      1.03395033	      0.03520870	      1.69877407	     12.34553634	     15.94397426	      6.82837129	     26.72819341	    -10.39434022	     20.01368361	    -69.53522389	     52.92546386	     68.29294568	    -24.55452892	     49.56938227	    -24.99999983	     15.62164255	     -7.68133061	    -24.01229501	    -17.49508844	    -42.25639536	      3.33094476	     65.95891396	    -28.95049839	      1.02959037	     70.83002015	     13.49553193	     17.35357801	    -17.67817528
      5.54000000	      1.26565064	      4.96821644	     12.66899787	     -0.11933403	      1.03406826	      0.03493816	      1.59763975	     12.28689679	     16.44622160	      6.54787347	     27.46948804	    -10.61452582	     20.12185164	    -68.87337858	     52.53764329	     68.33295262	    -24.01594121	     47.22089252	    -24.99999983	     15.75388851	     -7.91784397	    -24.09552418	    -17.05439640	    -41.77413315	      3.44765211	     66.01984810	    -27.91778520	      1.34272470	     69.95172778	     13.33134186	     17.35260114	    -17.34147069
      5.55000000	      1.13061767	      4.96485252	     12.98598480	     -0.11934008	      1.03389976	      0.03465373	      1.98746827	     12.10165607	     17.34542269	      6.35714520	     27.55251292	    -10.85889223	     20.11542152	    -68.64153002	     51.61422074	     68.78691390	    -23.60895015	     42.15064815	    -24.99999983	     16.09579126	     -8.12797379	    -24.55264596	    -16.63950469	    -41.32961823	      3.74452283	     66.10370595	    -27.32146854	      0.98224997	     69.14099666	     12.55088821	     18.66529942	    -15.84591381
      5.56000000	      1.06710813	      4.87808811	     12.86997660	     -0.11902592	      1.03409958	      0.03410976	      2.14789443	     11.74579777	     17.97611531	      5.98742750	     27.76549158	    -11.03185331	     20.35599463	    -67.78604870	     51.36931690	     68.13791940	    -23.58708733	     41.57790575	    -24.99999983	     16.31241673	     -8.54102133	    -24.76892206	    -16.03217359	    -40.83792977	      3.91582035	     66.32588531	    -26.53619671	      0.87851321	     68.07704597	     12.57918024	     18.77581843	    -15.53038191
      5.57000000	      1.00134075	      4.56416120	     12.67509704	     -0.11861406	      1.03354382	      0.03353199	      2.34225979	     11.73360351	     19.00144331	      5.75987476	     28.47681603	    -11.38384187	     20.04050222	    -66.84516588	     51.04275107	     67.85222095	    -24.10074433	     37.56954169	    -24.99999983	     16.47879503	     -8.45365183	    -24.88841626	    -15.78386764	    -40.13909067	      4.07820933	     65.90668539	    -25.34629161	      1.37950843	     66.87934573	     11.73309776	     19.97266892	    -14.12462611
      5.58000000	      1.05133945	      4.64465586	     12.81939626	     -0.11874528	      1.03333900	      0.03345275	      2.74081960	     11.45310877	     19.66121466	      5.58016664	     28.26023628	    -11.52855803	     20.43873059	    -66.39699079	     49.17464004	     68.26846947	    -19.93652920	     30.09788296	    -24.99999983	     16.93229857	     -9.18173971	    -25.56959288	    -15.02314761	    -39.96865069	      4.42365133	     66.22454295	    -24.53080604	      1.10654431	     65.54740398	      9.72956925	     21.47022073	    -11.71435077
